<svg width="720" height="540" viewBox="0 0 720 540" fill="none" xmlns="http://www.w3.org/2000/svg">
  <defs>
    <linearGradient id="bgGradient" x1="76" y1="40" x2="620" y2="520" gradientUnits="userSpaceOnUse">
      <stop offset="0" stop-color="#F8FBFF" />
      <stop offset="0.42" stop-color="#EEF6FF" />
      <stop offset="1" stop-color="#E0F2FE" />
    </linearGradient>
    <radialGradient id="auraBlue" cx="0" cy="0" r="1" gradientUnits="userSpaceOnUse" gradientTransform="translate(148 120) rotate(90) scale(120 130)">
      <stop stop-color="#4F46E5" stop-opacity="0.2" />
      <stop offset="1" stop-color="#38BDF8" stop-opacity="0" />
    </radialGradient>
    <radialGradient id="auraCyan" cx="0" cy="0" r="1" gradientUnits="userSpaceOnUse" gradientTransform="translate(560 420) rotate(90) scale(140 150)">
      <stop stop-color="#22D3EE" stop-opacity="0.25" />
      <stop offset="1" stop-color="#38BDF8" stop-opacity="0" />
    </radialGradient>
    <linearGradient id="arrowGradient" x1="0" y1="0" x2="1" y2="1">
      <stop offset="0" stop-color="#38BDF8" />
      <stop offset="1" stop-color="#1D4ED8" />
    </linearGradient>
    <linearGradient id="ringGradient" x1="360" y1="180" x2="360" y2="360" gradientUnits="userSpaceOnUse">
      <stop stop-color="#2563EB" />
      <stop offset="1" stop-color="#38BDF8" />
    </linearGradient>
    <filter id="cardShadow" x="-40" y="-40" width="300" height="300" filterUnits="userSpaceOnUse" color-interpolation-filters="sRGB">
      <feOffset dy="18" input="SourceAlpha" />
      <feGaussianBlur stdDeviation="24" />
      <feColorMatrix type="matrix" values="0 0 0 0 0.086 0 0 0 0 0.149 0 0 0 0 0.258 0 0 0 0.12 0" />
      <feBlend mode="normal" in2="BackgroundImageFix" result="effect1_dropShadow" />
      <feBlend mode="normal" in="SourceGraphic" in2="effect1_dropShadow" result="shape" />
    </filter>
    <filter id="badgeShadow" x="0" y="0" width="200" height="100" filterUnits="userSpaceOnUse" color-interpolation-filters="sRGB">
      <feOffset dy="8" input="SourceAlpha" />
      <feGaussianBlur stdDeviation="16" />
      <feColorMatrix type="matrix" values="0 0 0 0 0.031 0 0 0 0 0.082 0 0 0 0 0.247 0 0 0 0.18 0" />
      <feBlend mode="normal" in="SourceGraphic" in2="BackgroundImageFix" result="shape" />
    </filter>
  </defs>
  <rect width="720" height="540" rx="40" fill="url(#bgGradient)" />
  <circle cx="148" cy="126" r="140" fill="url(#auraBlue)" />
  <circle cx="580" cy="420" r="164" fill="url(#auraCyan)" />
  <g filter="url(#badgeShadow)">
    <rect x="270" y="40" width="180" height="54" rx="18" fill="rgba(255,255,255,0.9)" />
    <text x="360" y="72" text-anchor="middle" fill="#0F172A" font-size="15" font-weight="700" letter-spacing="0.32em">CAUSAL LOOP MAP</text>
  </g>
  <g filter="url(#badgeShadow)">
    <rect x="96" y="410" width="188" height="70" rx="20" fill="#0F172A" fill-opacity="0.92" />
    <text x="190" y="440" text-anchor="middle" fill="#E0F2FE" font-size="13" font-weight="600">TRUST SIGNALS</text>
    <text x="190" y="458" text-anchor="middle" fill="#94A3B8" font-size="11">認定士48社×最新外部データ</text>
  </g>
  <g filter="url(#cardShadow)">
    <rect x="88" y="108" width="190" height="168" rx="32" fill="rgba(255,255,255,0.95)" />
  </g>
  <g filter="url(#cardShadow)">
    <rect x="442" y="108" width="190" height="168" rx="32" fill="rgba(255,255,255,0.95)" />
  </g>
  <g filter="url(#cardShadow)">
    <rect x="266" y="240" width="208" height="192" rx="36" fill="rgba(255,255,255,0.96)" />
  </g>
  <g stroke="url(#arrowGradient)" stroke-width="4" stroke-linecap="round" stroke-linejoin="round" fill="none">
    <path d="M278 192C318 192 332 228 344 258" />
    <path d="M344 258L330 250" />
    <path d="M344 258L348 242" />
    <path d="M444 256C484 238 512 210 522 180" />
    <path d="M522 180L520 198" />
    <path d="M522 180L508 184" />
    <path d="M412 360C460 372 488 410 496 452" />
    <path d="M496 452L494 434" />
    <path d="M496 452L480 446" />
    <path d="M200 432C244 420 276 380 296 336" />
    <path d="M296 336L286 348" />
    <path d="M296 336L312 340" />
  </g>
  <g stroke="#0F172A" stroke-linecap="round" stroke-linejoin="round" stroke-width="3">
    <path d="M142 192L162 220L206 160" />
    <circle cx="160" cy="156" r="22" />
  </g>
  <g stroke="#0F172A" stroke-linecap="round" stroke-linejoin="round" stroke-width="3">
    <rect x="516" y="156" width="64" height="46" rx="12" />
    <path d="M516 184H580" />
    <path d="M532 166V192" />
    <path d="M548 166V192" />
  </g>
  <g stroke="#0F172A" stroke-width="2.8" stroke-linecap="round" stroke-linejoin="round">
    <path d="M336 328H430" />
    <path d="M336 346H398" />
    <path d="M336 310H404" />
    <path d="M398 292V364" />
  </g>
  <circle cx="370" cy="336" r="78" stroke="url(#ringGradient)" stroke-width="10" fill="none" />
  <circle cx="370" cy="336" r="60" fill="#0F172A" fill-opacity="0.9" />
  <text x="370" y="326" text-anchor="middle" fill="#F8FAFC" font-size="18" font-weight="700">財務インパクト</text>
  <text x="370" y="348" text-anchor="middle" fill="#38BDF8" font-size="13" font-weight="600">粗利率・資金波形・在庫</text>
  <text x="370" y="368" text-anchor="middle" fill="#C7D2FE" font-size="11">AIが関係性をスコア化</text>
  <rect x="306" y="382" width="128" height="36" rx="14" fill="rgba(14,165,233,0.16)" />
  <text x="370" y="404" text-anchor="middle" fill="#0EA5E9" font-size="12" font-weight="600">意思決定リードタイム▲42%</text>
  <text x="184" y="144" text-anchor="middle" fill="#0F172A" font-size="18" font-weight="700">外部シグナル</text>
  <text x="184" y="170" text-anchor="middle" fill="#2563EB" font-size="14" font-weight="700">需給・取引条件・資金余力</text>
  <text x="184" y="194" text-anchor="middle" fill="#64748B" font-size="12">週次で自動収集</text>
  <rect x="122" y="206" width="122" height="32" rx="14" fill="rgba(14,165,233,0.12)" />
  <text x="183" y="228" text-anchor="middle" fill="#0F172A" font-size="12" font-weight="600">リスク早期警戒スコア</text>
  <text x="536" y="144" text-anchor="middle" fill="#0F172A" font-size="18" font-weight="700">意思決定</text>
  <text x="536" y="168" text-anchor="middle" fill="#2563EB" font-size="14" font-weight="700">投資・採用・価格改定</text>
  <text x="536" y="192" text-anchor="middle" fill="#64748B" font-size="12">経営会議へ即時提示</text>
  <rect x="484" y="204" width="104" height="32" rx="14" fill="rgba(59,130,246,0.14)" />
  <text x="536" y="224" text-anchor="middle" fill="#1E3A8A" font-size="12" font-weight="600">シナリオ比較ダッシュボード</text>
  <text x="240" y="480" fill="#1E293B" font-size="12" font-weight="600">〈CAUSE〉</text>
  <text x="368" y="480" fill="#1E293B" font-size="12" font-weight="600">〈IMPACT〉</text>
  <text x="520" y="480" fill="#1E293B" font-size="12" font-weight="600">〈ACTION〉</text>
  <rect x="450" y="420" width="188" height="86" rx="24" fill="rgba(255,255,255,0.92)" />
  <text x="544" y="450" text-anchor="middle" fill="#0F172A" font-size="14" font-weight="700">週次実務ダッシュボード</text>
  <text x="544" y="468" text-anchor="middle" fill="#38BDF8" font-size="12" font-weight="600">指標の異常をリアルタイム監視</text>
  <text x="544" y="488" text-anchor="middle" fill="#64748B" font-size="11">現場メモと自動で連携</text>
</svg>
